<?xml version="1.0" encoding="UTF-8" standalone="no"?>
<svg 
xmlns="http://www.w3.org/2000/svg"
 version="1.1" 
 xmlns:xlink="http://www.w3.org/1999/xlink"
    xmlns:svgjs="http://svgjs.dev/svgjs" 
    width="1500" 
    height="935" 
    viewBox="0 0 1500 935">
    <g transform="matrix(1,0,0,1,-0.9090909090909918,0.3785425101214628)">
        <svg viewBox="0 0 396 247" 
        data-background-color="#050816"
            preserveAspectRatio="xMidYMid meet" 
            height="935" width="1500"
            xmlns="http://www.w3.org/2000/svg" 
            xmlns:xlink="http://www.w3.org/1999/xlink">
            <g id="tight-bounds" 
            transform="matrix(1,0,0,1,0.2400000000000091,-0.09999999999999432)">
                <svg viewBox="0 0 395.52 247.2"
                height="247.2" width="395.52">
                    <g>
                        <svg></svg>
                    </g>
                    <g>
                        <svg viewBox="0 0 395.52 247.2" height="247.2" width="395.52">
                            <g transform="matrix(1,0,0,1,75.54432,51.08243763016158)">
                                <svg viewBox="0 0 244.43135999999998 145.03512473967683"
                                    height="145.03512473967683" width="244.43135999999998">
                                    <g>
                                        <svg viewBox="0 0 244.43135999999998 145.03512473967683"
                                            height="145.03512473967683" width="244.43135999999998">
                                            <g>
                                                <svg
                                                    viewBox="0 0 244.43135999999998 145.03512473967683"
                                                    height="145.03512473967683"
                                                    width="244.43135999999998">
                                                    <g>
                                                        <svg
                                                            viewBox="0 0 244.43135999999998 145.03512473967683"
                                                            height="145.03512473967683"
                                                            width="244.43135999999998">
                                                            <g id="textblocktransform">
                                                                <svg
                                                                    viewBox="0 0 244.43135999999998 145.03512473967683"
                                                                    height="145.03512473967683"
                                                                    width="244.43135999999998"
                                                                    id="textblock">
                                                                    <g>
                                                                        <svg
                                                                            viewBox="0 0 244.43135999999998 145.03512473967683"
                                                                            height="145.03512473967683"
                                                                            width="244.43135999999998">
                                                                            <g
                                                                                transform="matrix(1,0,0,1,0,0)">
                                                                                <svg
                                                                                    width="244.43135999999998"
                                                                                    viewBox="-0.95 -32.45 55.7 33.050000000000004"
                                                                                    height="145.03512473967683"
                                                                                    data-palette-color="#e83d95">
                                                                                    <path
                                                                                        d="M7.2 0.6L7.5-1.7Q9.3-2.05 10.1-2.6 10.9-3.15 11.15-4.1 11.4-5.05 11.4-7.1L11.4-7.1 11.4-9.3Q11.4-10.85 11.1-12.03 10.8-13.2 9.95-14.95L9.95-14.95 5.45-24.1Q4.15-26.75 3.6-27.68 3.05-28.6 2.05-29.15 1.05-29.7-0.85-29.85L-0.85-29.85-0.95-30.05-0.65-32Q-0.1-31.95 1.45-31.9 3-31.85 4.85-31.85L4.85-31.85Q6.6-31.85 8.93-32.02 11.25-32.2 11.95-32.25L11.95-32.25 12.1-31.9 11.95-30.15Q9.7-29.95 8.93-29.58 8.15-29.2 8.15-28.35L8.15-28.35Q8.15-27.7 9.4-24.8 10.65-21.9 11.98-19.1 13.3-16.3 13.75-15.45L13.75-15.45 14-15.45 19.7-26.05Q20.5-27.5 20.5-28.55L20.5-28.55Q20.5-29.85 17.35-30.05L17.35-30.05 17.25-30.25 17.55-32.2Q18.15-32.15 20.05-32 21.95-31.85 23.1-31.85L23.1-31.85Q24.3-31.85 25.78-31.93 27.25-32 27.7-32.05L27.7-32.05 27.9-31.7 27.6-29.85Q26-29.55 25.1-29.03 24.2-28.5 23.53-27.53 22.85-26.55 21.55-24.25L21.55-24.25Q21.25-23.65 21.05-23.35L21.05-23.35 16.05-14.55Q15.4-13.4 15.23-11.95 15.05-10.5 14.95-6.7L14.95-6.7 14.95-5.6Q14.9-3.65 15.38-2.93 15.85-2.2 17.15-2.2L17.15-2.2Q17.95-2.2 18.65-2.25 19.35-2.3 19.6-2.35L19.6-2.35 19.7-2.15 19.25 0.15Q18.55 0.1 16.68 0.05 14.8 0 12.9 0L12.9 0Q11.35 0 9.55 0.25 7.75 0.5 7.2 0.6L7.2 0.6ZM42.85 0.6Q38.35 0.6 34.95-1.3 31.55-3.2 29.72-6.68 27.9-10.15 27.9-14.85L27.9-14.85Q27.9-19.85 30.15-23.88 32.4-27.9 36.37-30.18 40.35-32.45 45.35-32.45L45.35-32.45Q47.2-32.45 49.12-32.18 51.05-31.9 52.37-31.63 53.7-31.35 54.05-31.25L54.05-31.25 54.25-30.95Q54.15-30.65 53.92-29.5 53.7-28.35 53.42-26.5 53.15-24.65 53-22.6L53-22.6 50.6-22.4Q50.65-22.65 50.7-23.33 50.75-24 50.75-24.85L50.75-24.85Q50.75-29.5 43.4-29.5L43.4-29.5Q40.1-29.5 37.6-27.9 35.1-26.3 33.75-23.38 32.4-20.45 32.4-16.5L32.4-16.5Q32.4-12.15 33.82-8.85 35.25-5.55 37.85-3.73 40.45-1.9 43.85-1.9L43.85-1.9Q47.25-1.9 49.32-3.83 51.4-5.75 52.35-9.8L52.35-9.8 54.75-10Q54.6-9.25 54.1-6.68 53.6-4.1 53.4-1.85L53.4-1.85 53.1-1.4Q53.1-1.35 51.57-0.83 50.05-0.3 47.77 0.15 45.5 0.6 42.85 0.6L42.85 0.6Z"
                                                                                        opacity="1"
                                                                                        transform="matrix(1,0,0,1,0,0)"
                                                                                        fill="#e83d95"
                                                                                        class="wordmark-text-0"
                                                                                        data-fill-palette-color="primary"
                                                                                        id="text-0"></path>
                                                                                </svg>
                                                                            </g>
                                                                        </svg>
                                                                    </g>
                                                                </svg>
                                                            </g>
                                                        </svg>
                                                    </g>
                                                </svg>
                                            </g>
                                        </svg>
                                    </g>
                                </svg>
                            </g>
                            <g>
                                <path
                                    d="M0 123.6c0-68.262 55.338-123.6 123.6-123.6 32.977 0 62.938 12.915 85.101 33.963h-9.809c-20.353-17.114-46.619-27.423-75.292-27.423-64.651 0-117.06 52.41-117.06 117.06 0 64.651 52.41 117.06 117.06 117.06 28.673 0 54.939-10.309 75.292-27.423l9.809 0c-22.163 21.048-52.124 33.963-85.101 33.963-68.262 0-123.6-55.338-123.6-123.6z"
                                    fill="#e83d95" stroke="transparent"
                                    data-fill-palette-color="tertiary"></path>
                            </g>
                        </svg>
                    </g>
                    <defs></defs>
                </svg>
                <rect width="395.52" height="247.2" fill="none" stroke="none" visibility="hidden"></rect>
            </g>
        </svg>
    </g>
</svg>